<svg id="Слой_1" data-name="Слой 1" xmlns="http://www.w3.org/2000/svg" viewBox="0 0 64 67.86"><defs><style>.cls-1{font-size:13.87px;font-family:Merriweather-Italic, Merriweather;font-style:italic;}</style></defs><polygon points="62.05 37.48 55.06 39.59 50.9 22.03 57.95 20.03 62.05 37.48"/><polygon points="53.53 37.91 50.27 38.8 47.43 24.87 50.22 24.13 53.53 37.91"/><polygon points="8.84 38.8 1.95 36.75 6 19.34 13.2 21.5 8.84 38.8"/><polygon points="13.94 38.06 10.47 37.27 13.83 23.55 16.73 24.13 13.94 38.06"/><path d="M28.08,29.93h0a1.07,1.07,0,0,0-1.49.09L22.12,34.9a1.38,1.38,0,0,0,.07,2l.53.49A2.19,2.19,0,0,0,26,37.06L28.33,34A2.85,2.85,0,0,0,28.08,29.93Z" transform="translate(0 8.55)"/><path d="M17.77,27.75l-.87.81a1.46,1.46,0,0,0-.12,2l.77.89a.73.73,0,0,0,1.11,0l2-2.27a1.06,1.06,0,0,0-.11-1.49h0A2,2,0,0,0,17.77,27.75Z" transform="translate(0 8.55)"/><path d="M25.13,28.57l-.2-.16a1.92,1.92,0,0,0-2.66.1l-3.11,3.2a1.36,1.36,0,0,0,0,1.86l1.15,1.25a.77.77,0,0,0,1.17,0l3.8-4.71A1.09,1.09,0,0,0,25.13,28.57Z" transform="translate(0 8.55)"/><path d="M30.21,35.09l-.05,0a1.25,1.25,0,0,0-1.76.05l-2.14,2.26a1.16,1.16,0,0,0,.12,1.7l.82.66a1.43,1.43,0,0,0,2-.28l1.21-1.66A2,2,0,0,0,30.21,35.09Z" transform="translate(0 8.55)"/><path d="M49.14,28.34l-.17,0v.17l-1-.1.21.91-.16,0-.07.16A29.7,29.7,0,0,1,34.53,18.5l-.2-.3.33-.15A2.63,2.63,0,0,0,36,16a1.41,1.41,0,0,0,0-.41,4.51,4.51,0,0,1-1.72,2.08,3.17,3.17,0,0,1-1.75.52,3.84,3.84,0,0,1-.84-.1L31.6,18v-1c-.1.18-.2.37-.28.55-.21.45-.32.74-.42,1a2.87,2.87,0,0,1-.27.66,4.55,4.55,0,0,1-2.09,1.93,6,6,0,0,1-2.7.69,3.39,3.39,0,0,1-2.08-.62A1.78,1.78,0,0,1,23,20.11c0-.46.25-.76.85-1.39.24-.24.52-.53.86-.91a14.55,14.55,0,0,0,1-1.22c.21-.3.38-.55.53-.79a10.06,10.06,0,0,1,1-1.33,4.67,4.67,0,0,1,.7-.62,3.83,3.83,0,0,1,1.43-.57c1.62-.34,5.34-1.47,6.21-1.78a2.63,2.63,0,0,1,2.07.08l0,0c1.6.73,2.41,1.09,2.7,1.26a29.94,29.94,0,0,1,4.71,3.35,1.19,1.19,0,0,0,.31.25,1.42,1.42,0,0,0,.84.11l0-.15.33-.07Z" transform="translate(0 8.55)"/><path d="M47.46,32.08a4.36,4.36,0,0,1-1.24,1.29,4.16,4.16,0,0,1-1.31.62,3.36,3.36,0,0,1-1.06,1.79.61.61,0,0,1-.15.13,4.58,4.58,0,0,1-1.3.79,4.92,4.92,0,0,1-1.8.33h-.21a4,4,0,0,1-1.3,1.51,3.7,3.7,0,0,1-2.08.65h-.17a.15.15,0,0,1-.09,0,3.45,3.45,0,0,1-1.43-.42,3.82,3.82,0,0,1-.36-.21s0,0,0,0,0,0,0,0a3,3,0,0,1-.35.38,2.3,2.3,0,0,1-1.58.66,4.61,4.61,0,0,1-1.15-.19,7.76,7.76,0,0,1-2.61-1.15l.36-.52A7.07,7.07,0,0,0,32,38.83a2.46,2.46,0,0,0,1.6.05,1.82,1.82,0,0,0,.52-.32,1.73,1.73,0,0,0,.26-.28,20.44,20.44,0,0,1-3-2.34l-.07-.07a.17.17,0,0,1,0-.13h0a.19.19,0,0,1,.18-.18h0a.23.23,0,0,1,.14,0l.1.07.75.56c.3.21.58.41.89.59.59.38,1.2.73,1.82,1.06.17.09.35.19.53.27s.38.18.58.27l.07,0a3,3,0,0,0,.57.12,2.49,2.49,0,0,0,1.53-.27,2.88,2.88,0,0,0,.34-.27,4.47,4.47,0,0,0,.46-.52,1,1,0,0,0,.14-.16.72.72,0,0,0-.07-.51c-.06-.1-.14-.14-.35-.26l-.37-.23A5,5,0,0,0,38,36L38,36a36.32,36.32,0,0,1-5.31-3.86.15.15,0,0,1-.06,0,.41.41,0,0,1,0-.08v0a.12.12,0,0,1,.09-.11.19.19,0,0,1,.08,0,.17.17,0,0,1,.11.06c.81.39,1.6.83,2.36,1.27s1.1.7,1.57,1a22.12,22.12,0,0,0,2.34,1.42c.52.25,1,.49,1.54.7a3.18,3.18,0,0,0,1-.14,3.72,3.72,0,0,0,1.52-.74l.19-.17.21-.21a.36.36,0,0,0,.07-.1,1,1,0,0,0,.1-.74,1.15,1.15,0,0,0-.26-.41,1.24,1.24,0,0,0-.42-.27h0c-.48-.19-2-1.12-4.32-2.52l0,0a21.31,21.31,0,0,1-2.89-2.11.35.35,0,0,1-.09-.07.21.21,0,0,1,0-.1c0-.13.14-.23.32-.23a.54.54,0,0,1,.2,0l1.29.8,1.56,1,1.12.64c1.6.91,2.65,1.53,3.77,2,0,0,0,0,0,0l.14.07A1.86,1.86,0,0,0,45.51,33l0,0,.17-.11a.53.53,0,0,0,.1-.06,3.76,3.76,0,0,0,1-1.09,3.25,3.25,0,0,0,.42-2.58,3.52,3.52,0,0,0-3.76-2.36l-.05-.7A4.23,4.23,0,0,1,48,29,4,4,0,0,1,47.46,32.08Z" transform="translate(0 8.55)"/><path d="M15,28.44v.11l0,0S15,28.46,15,28.44Z" transform="translate(0 8.55)"/><path d="M34,12.19l-.32.54c-2.7-1.61-4.74-1.65-5.46-1.44A22.72,22.72,0,0,0,21.73,15a13,13,0,0,1-1.61,1.09l-.4.23-.17.1a2.54,2.54,0,0,1-1.07.32h-.33v.09a84.42,84.42,0,0,1-1.85,9.35c-.07.34-.17.67-.27,1a9.65,9.65,0,0,1-.31,1.14h1.83v.39a23.37,23.37,0,0,0,11.28,9.55l-.25.59a24.24,24.24,0,0,1-11.64-9.9H15v-.5a.69.69,0,0,0,0-.13c.21-.69.4-1.39.56-2.09.12-.36.2-.71.29-1.08a83.46,83.46,0,0,0,1.61-8.4v0l.08-.63a2,2,0,0,0,.65,0h.17a2.12,2.12,0,0,0,.82-.23l.17-.09a2.63,2.63,0,0,1,.45-.27,12.12,12.12,0,0,0,1.5-1A23.41,23.41,0,0,1,28,10.69C28.88,10.43,31.09,10.46,34,12.19Z" transform="translate(0 8.55)"/><path d="M15.05,28.31a.69.69,0,0,1,0,.13v-.13Z" transform="translate(0 8.55)"/><path d="M36.17,28.53a.54.54,0,0,0-.2,0" transform="translate(0 8.55)"/><path d="M45.72,32.87l-.17.11,0,0A.6.6,0,0,0,45.72,32.87Z" transform="translate(0 8.55)"/><path d="M36.17,28.53a.54.54,0,0,0-.2,0" transform="translate(0 8.55)"/><path d="M35.32,38.74a1.3,1.3,0,0,1-.37-.19s0,0,0,0A3.82,3.82,0,0,0,35.32,38.74Z" transform="translate(0 8.55)"/><text y="8.55"/><text y="8.55"/><text class="cls-1" transform="translate(0 64.07)">ПАРИТЕТ</text></svg>